<svg id="visual" viewBox="0 0 900 450" width="900" height="450" xmlns="http://www.w3.org/2000/svg" xmlns:xlink="http://www.w3.org/1999/xlink" version="1.1"><rect x="0" y="0" width="900" height="450" fill="#001220"></rect><path d="M0 163L21.5 164C43 165 86 167 128.8 162.8C171.7 158.7 214.3 148.3 257.2 142.7C300 137 343 136 385.8 144C428.7 152 471.3 169 514.2 183.5C557 198 600 210 642.8 208.8C685.7 207.7 728.3 193.3 771.2 194.3C814 195.3 857 211.7 878.5 219.8L900 228L900 0L878.5 0C857 0 814 0 771.2 0C728.3 0 685.7 0 642.8 0C600 0 557 0 514.2 0C471.3 0 428.7 0 385.8 0C343 0 300 0 257.2 0C214.3 0 171.7 0 128.8 0C86 0 43 0 21.5 0L0 0Z" fill="#00003b"></path><path d="M0 145L21.5 148.7C43 152.3 86 159.7 128.8 159C171.7 158.3 214.3 149.7 257.2 140C300 130.3 343 119.7 385.8 122.3C428.7 125 471.3 141 514.2 138.7C557 136.3 600 115.7 642.8 109.8C685.7 104 728.3 113 771.2 122.2C814 131.3 857 140.7 878.5 145.3L900 150L900 0L878.5 0C857 0 814 0 771.2 0C728.3 0 685.7 0 642.8 0C600 0 557 0 514.2 0C471.3 0 428.7 0 385.8 0C343 0 300 0 257.2 0C214.3 0 171.7 0 128.8 0C86 0 43 0 21.5 0L0 0Z" fill="#b2004e"></path><path d="M0 152L21.5 144.5C43 137 86 122 128.8 115.7C171.7 109.3 214.3 111.7 257.2 108.8C300 106 343 98 385.8 100C428.7 102 471.3 114 514.2 116.7C557 119.3 600 112.7 642.8 104.7C685.7 96.7 728.3 87.3 771.2 82.5C814 77.7 857 77.3 878.5 77.2L900 77L900 0L878.5 0C857 0 814 0 771.2 0C728.3 0 685.7 0 642.8 0C600 0 557 0 514.2 0C471.3 0 428.7 0 385.8 0C343 0 300 0 257.2 0C214.3 0 171.7 0 128.8 0C86 0 43 0 21.5 0L0 0Z" fill="#f61000"></path><path d="M0 88L21.5 91C43 94 86 100 128.8 97.8C171.7 95.7 214.3 85.3 257.2 77.7C300 70 343 65 385.8 71.5C428.7 78 471.3 96 514.2 103.2C557 110.3 600 106.7 642.8 106.3C685.7 106 728.3 109 771.2 111C814 113 857 114 878.5 114.5L900 115L900 0L878.5 0C857 0 814 0 771.2 0C728.3 0 685.7 0 642.8 0C600 0 557 0 514.2 0C471.3 0 428.7 0 385.8 0C343 0 300 0 257.2 0C214.3 0 171.7 0 128.8 0C86 0 43 0 21.5 0L0 0Z" fill="#b2004e"></path><path d="M0 16L21.5 18.7C43 21.3 86 26.7 128.8 35.3C171.7 44 214.3 56 257.2 63.2C300 70.3 343 72.7 385.8 72.5C428.7 72.3 471.3 69.7 514.2 63.2C557 56.7 600 46.3 642.8 45C685.7 43.7 728.3 51.3 771.2 52.5C814 53.7 857 48.3 878.5 45.7L900 43L900 0L878.5 0C857 0 814 0 771.2 0C728.3 0 685.7 0 642.8 0C600 0 557 0 514.2 0C471.3 0 428.7 0 385.8 0C343 0 300 0 257.2 0C214.3 0 171.7 0 128.8 0C86 0 43 0 21.5 0L0 0Z" fill="#00003b"></path></svg>