<svg id="visual" viewBox="0 0 900 450" width="900" height="450" xmlns="http://www.w3.org/2000/svg" xmlns:xlink="http://www.w3.org/1999/xlink" version="1.1"><rect x="0" y="0" width="900" height="450" fill="#001220"></rect><path d="M0 209L21.5 217.2C43 225.3 86 241.7 128.8 243.5C171.7 245.3 214.3 232.7 257.2 241C300 249.3 343 278.7 385.8 280.5C428.7 282.3 471.3 256.7 514.2 258.5C557 260.3 600 289.7 642.8 291.5C685.7 293.3 728.3 267.7 771.2 268.2C814 268.7 857 295.3 878.5 308.7L900 322L900 451L878.5 451C857 451 814 451 771.2 451C728.3 451 685.7 451 642.8 451C600 451 557 451 514.2 451C471.3 451 428.7 451 385.8 451C343 451 300 451 257.2 451C214.3 451 171.7 451 128.8 451C86 451 43 451 21.5 451L0 451Z" fill="#00003b"></path><path d="M0 324L21.5 324C43 324 86 324 128.8 329.3C171.7 334.7 214.3 345.3 257.2 347.5C300 349.7 343 343.3 385.8 331.8C428.7 320.3 471.3 303.7 514.2 307C557 310.3 600 333.7 642.8 341.2C685.7 348.7 728.3 340.3 771.2 339.2C814 338 857 344 878.5 347L900 350L900 451L878.5 451C857 451 814 451 771.2 451C728.3 451 685.7 451 642.8 451C600 451 557 451 514.2 451C471.3 451 428.7 451 385.8 451C343 451 300 451 257.2 451C214.3 451 171.7 451 128.8 451C86 451 43 451 21.5 451L0 451Z" fill="#b2004e"></path><path d="M0 363L21.5 352.7C43 342.3 86 321.7 128.8 316.3C171.7 311 214.3 321 257.2 330C300 339 343 347 385.8 347C428.7 347 471.3 339 514.2 337.5C557 336 600 341 642.8 344.5C685.7 348 728.3 350 771.2 351.2C814 352.3 857 352.7 878.5 352.8L900 353L900 451L878.5 451C857 451 814 451 771.2 451C728.3 451 685.7 451 642.8 451C600 451 557 451 514.2 451C471.3 451 428.7 451 385.8 451C343 451 300 451 257.2 451C214.3 451 171.7 451 128.8 451C86 451 43 451 21.5 451L0 451Z" fill="#f61000"></path><path d="M0 358L21.5 364.8C43 371.7 86 385.3 128.8 384C171.7 382.7 214.3 366.3 257.2 363.2C300 360 343 370 385.8 379.2C428.7 388.3 471.3 396.7 514.2 391.5C557 386.3 600 367.7 642.8 355.5C685.7 343.3 728.3 337.7 771.2 344.2C814 350.7 857 369.3 878.5 378.7L900 388L900 451L878.5 451C857 451 814 451 771.2 451C728.3 451 685.7 451 642.8 451C600 451 557 451 514.2 451C471.3 451 428.7 451 385.8 451C343 451 300 451 257.2 451C214.3 451 171.7 451 128.8 451C86 451 43 451 21.5 451L0 451Z" fill="#b2004e"></path><path d="M0 426L21.5 427.5C43 429 86 432 128.8 425.3C171.7 418.7 214.3 402.3 257.2 398.7C300 395 343 404 385.8 411.2C428.7 418.3 471.3 423.7 514.2 423.5C557 423.3 600 417.7 642.8 418.5C685.7 419.3 728.3 426.7 771.2 429.5C814 432.3 857 430.7 878.5 429.8L900 429L900 451L878.5 451C857 451 814 451 771.2 451C728.3 451 685.7 451 642.8 451C600 451 557 451 514.2 451C471.3 451 428.7 451 385.8 451C343 451 300 451 257.2 451C214.3 451 171.7 451 128.8 451C86 451 43 451 21.5 451L0 451Z" fill="#00003b"></path></svg>